<?xml version="1.0" encoding="iso-8859-1"?>
<!-- Generator: Adobe Illustrator 19.0.0, SVG Export Plug-In . SVG Version: 6.00 Build 0)  -->
<svg version="1.1" id="Layer_1" xmlns="http://www.w3.org/2000/svg" xmlns:xlink="http://www.w3.org/1999/xlink" x="0px" y="0px"
	 viewBox="0 0 234.228 234.228" style="enable-background:new 0 0 234.228 234.228;" xml:space="preserve">
<g>
	<path style="fill:#E40274;" d="M224.478,109.171c10.909,22.092-3.392,54.039-15.584,73.244
		c-15.034,23.651-38.639,42.168-66.231,48.31C80.97,244.52,29.681,217.157,11.484,156.014
		C-4.329,103.029,13.089,35.881,65.798,10.672c45.789-21.863,103.861-9.58,132.462,31.763c1.146,1.237,2.246,2.567,3.208,3.758
		c3.484,4.308,6.004,8.8,7.609,14.025c2.429,1.925,2.888,6.05-0.367,8.113c-6.921,4.446-15.355,7.013-23.101,9.579
		c-6.554,2.154-13.2,4.217-20.03,5.042c-2.338,2.246-6.508,2.75-8.663-0.825c-13.155-22.047-35.384-33.459-60.502-22.963
		c-19.296,8.021-29.563,32.13-31.58,51.381c-2.292,21.771,4.767,45.33,23.926,57.981c18.105,11.963,68.798,12.421,70.54-19.067
		c-1.192-0.137-2.2-0.229-3.025-0.229c-11.459-0.137-24.751,2.292-35.522-2.017c-1.467,0.046-2.888-0.688-3.163-2.613
		c-1.879-11.229-2.796-22.505-3.392-33.826c-0.183-2.933,2.567-5.363,5.363-5.409c32.955-0.275,66.506-2.063,99.369,0.183
		c1.788,0.092,3.025,0.963,3.804,2.063C223.47,107.887,224.111,108.391,224.478,109.171z"/>
</g>
<g>
</g>
<g>
</g>
<g>
</g>
<g>
</g>
<g>
</g>
<g>
</g>
<g>
</g>
<g>
</g>
<g>
</g>
<g>
</g>
<g>
</g>
<g>
</g>
<g>
</g>
<g>
</g>
<g>
</g>
</svg>
